<svg xmlns="http://www.w3.org/2000/svg" xmlns:xlink="http://www.w3.org/1999/xlink" width="600" height="425" viewBox="0 0 600 425">
  <defs>
    <clipPath id="clip-Classroom-mgmt2">
      <rect width="600" height="425"/>
    </clipPath>
  </defs>
  <g id="Classroom-mgmt2" clip-path="url(#clip-Classroom-mgmt2)">
    <g id="Group_12049" data-name="Group 12049" transform="translate(-13.04 -854.78)">
      <g id="Group_5652" data-name="Group 5652" transform="translate(27.307 1268.154) rotate(-87)" opacity="0.53">
        <path id="Path_16726" data-name="Path 16726" d="M28.2,310.4C.822,284.871-4.454,256.608,3.178,230.606c10.537-35.9,46.251-67.2,81.8-79.539q1.647-.57,3.339-1.133C178.563,119.964,188.57,13.192,289.878,1.425c100.692-11.7,91.713,52.431,189.031,52.634,80.024.167,102.328,79.986,35.55,149.165-68.4,70.866-1.3,198.282-115.952,210.509-86.465,9.222-97.515-68.169-284.294-88.42-30.721-3.331-67.35,2.478-86.01-14.917" transform="translate(9.666 560.992) rotate(-91)" fill="#885750" opacity="0.44"/>
      </g>
      <g id="Group_5653" data-name="Group 5653" transform="translate(17.04 879.607)">
        <g id="Group_5039" data-name="Group 5039">
          <path id="Path_5656" data-name="Path 5656" d="M703.593,95.051l7.391,106.7,81.455,5.08L790.184,97.963Z" transform="translate(-531.337 18.946)" fill="#b9d2db"/>
          <path id="Path_5657" data-name="Path 5657" d="M754.5,93.686c-6.586-1.985-21.615,57.428-19.271,66.962,1.607,6.541,57.034,4.169,57.034,4.169l.581-11.4s-35.166-3.985-34.986-6.864,10.393-21.878,10.393-21.878S761.15,95.69,754.5,93.686Z" transform="translate(-500.921 17.576)" fill="#fece8f"/>
          <path id="Path_5658" data-name="Path 5658" d="M740.107,75.867l-14.933,2.325s4.2,13.274-2.239,24.6c0,0,10.735,11.629,18.222,8.554,8-3.286,5.017-11.366,5.017-11.366S738.026,93.526,740.107,75.867Z" transform="translate(-512.592 0.355)" fill="#f88667"/>
          <path id="Path_5659" data-name="Path 5659" d="M725.883,64.672s23.271-2.666,24.881,1.246,1.961,14.931,3.47,17.257,4.234,5.11,3.215,6.61-2.14,1.134-2.784,2.82-.4,11.21-3.47,12.63-18.752.583-24.428-8.349S714.642,65.495,725.883,64.672Z" transform="translate(-515.724 -11.354)" fill="#f88667"/>
          <path id="Path_5660" data-name="Path 5660" d="M722.57,65.691,738,72.834A34.682,34.682,0,0,0,741.958,89.7s-1.388,2.125-2.844.92-2.392-1.853-2.733-4.092-1.685-8.254-5.73-5.289.226,6.49,2.286,7.364c0,0,3.27,11.716-2.95,10.883,0,0-5.738-3.639-10.68-17.71S718.725,63.052,722.57,65.691Z" transform="translate(-518.249 -10.189)" fill="#292c3d"/>
          <path id="Path_5661" data-name="Path 5661" d="M757.886,66.052s5.517,7.935-7.307,13.244-31.269-8.672-31.269-8.672.471-6.963,10.7-9.942c7.644-2.225,14.809-1.91,18.71,2.514C755.352,70.722,757.886,66.052,757.886,66.052Z" transform="translate(-516.105 -15.67)" fill="#292c3d"/>
          <g id="Group_5025" data-name="Group 5025" transform="translate(186.686 231.488)">
            <rect id="Rectangle_176" data-name="Rectangle 176" width="4.45" height="117.227" fill="#b9d2db"/>
            <rect id="Rectangle_177" data-name="Rectangle 177" width="4.45" height="117.227" transform="translate(82.386)" fill="#b9d2db"/>
          </g>
          <rect id="Rectangle_178" data-name="Rectangle 178" width="110.714" height="15.339" transform="translate(174.747 220.691)" fill="#292c3d"/>
          <path id="Path_5662" data-name="Path 5662" d="M735.238,87.556s-20.829,5.8-21.687,6.315c0,0,2.3,30.133,1.959,38.249s-3.611,42.851-3.611,42.851h64.727s-.778-35.343-.433-43.113c0,0-2.078-26.236.669-32.279,0,0-13.6-8.52-19.994-10.924,0,0,.1,8.54-4.448,10.871S735.238,87.556,735.238,87.556Z" transform="translate(-523.287 11.683)" fill="#fece8f"/>
          <path id="Path_5663" data-name="Path 5663" d="M776.194,125.941s-.16-3.607-.23-8.483A78.533,78.533,0,0,1,771.3,130.1c-4.224,8.723-14.673,20.792-25.787,19.508-11.155-1.292-20.053-11.2-22.837-22.012-2.1-8.14-1.066-17.023-3.8-24.962a32.963,32.963,0,0,0-4.909-8.971c.646,9.14,1.792,26.646,1.543,32.541-.344,8.115-3.611,42.851-3.611,42.851h64.727S775.849,133.711,776.194,125.941Z" transform="translate(-523.287 17.6)" fill="#f29423"/>
          <g id="Group_5026" data-name="Group 5026" transform="translate(217.414 155.032)">
            <path id="Path_5664" data-name="Path 5664" d="M753.115,141.314l-14.7-24.927s-3.505-2.062-3.529,2.213l16.972,23.692S755.769,147.123,753.115,141.314Z" transform="translate(-718.426 -115.891)" fill="#292c3d"/>
            <path id="Path_5665" data-name="Path 5665" d="M755.438,128.373c-1.136-1.6-2.493-4.249-4.895-5.482s-13.2,3.17-13.957,3.357c-.394.1-7.218,2.152-8.624,1.684a62.353,62.353,0,0,1-1.435,7.414c2.512.945,10.623-.632,11.637-.782a7.738,7.738,0,0,1,5.592,1.573c1.7,1.2,3.31,2.2,4.513,1.963,1.125-.224-.075-1.711-.758-2.511.018.02.041.041.059.063,3.007,3.645,4.562,3.1,5.157,2.331.756-.971-3.257-4.369-3.645-4.836s-3.767-3.087-3.767-3.087c1.183.2,3.948,2.633,4.328,3.025s4.422,6.529,5.8,4.657-2-5.017-3.344-6.971a15.39,15.39,0,0,0-4.5-3.647c1.652-.219,4.468,2.887,5.411,3.976s3.395,6.24,5.346,4.942S756.574,129.968,755.438,128.373Zm-8.223,6.9a32.479,32.479,0,0,0-3.228-2.4A17.365,17.365,0,0,1,747.215,135.269Z" transform="translate(-726.526 -109.318)" fill="#f88667"/>
            <path id="Path_5666" data-name="Path 5666" d="M740.933,123.351s4,1.536,4.694,3.322-.4,2.853-1.347,2.434Z" transform="translate(-712.565 -108.661)" fill="#f88667"/>
          </g>
          <path id="Path_5667" data-name="Path 5667" d="M726.893,90.763s-6.839,4.793-10.066,10.867S696,153.9,698.345,163.434c1.607,6.541,57.032,4.169,57.032,4.169l.583-11.4s-35.166-3.985-34.987-6.864,10.391-21.878,10.391-21.878S736.934,104.082,726.893,90.763Z" transform="translate(-536.629 14.79)" fill="#fece8f"/>
          <path id="Path_5668" data-name="Path 5668" d="M764.371,204.723s18.559,5,26.234,7.457c6.38,2.044,5.567,7.774-1.274,10.432s-12.734,1.768-14.514-.323-5.635-.941-7.063-.1-14.721-.973-15.6-3.629.4-13.26.4-13.26Z" transform="translate(-484.581 125.227)" fill="#292c3d"/>
          <path id="Path_5669" data-name="Path 5669" d="M749.567,206.708s18.082,6.516,25.529,9.6c6.191,2.566,4.905,8.207-2.132,10.292s-12.836.709-14.437-1.522-5.537-1.4-7.029-.687-14.591-2.186-15.253-4.907,2.79-15.516,2.79-15.516Z" transform="translate(-499.776 124.494)" fill="#292c3d"/>
          <path id="Path_5670" data-name="Path 5670" d="M803.729,168.826c-2.046-7.595-39.852-30.556-42.934-37.47H730.262a49.727,49.727,0,0,0-8.081,23.359c-1.939,19.4,15.987,12.748,33.758,13.394s24.938,11.58,25.4,16.428-2.708,92.87-2.708,92.87l24.127-.136S804.945,173.347,803.729,168.826Z" transform="translate(-513.463 54.128)" fill="#514553"/>
          <path id="Path_5671" data-name="Path 5671" d="M786.543,277.345s8.01-105.133,6.216-107.854c-5.513-8.367-32.293-28.044-41.49-37.174l-21.006-.961a49.727,49.727,0,0,0-8.081,23.359c-1.939,19.4,15.987,12.748,33.758,13.394s24.938,11.58,25.4,16.428-2.708,92.87-2.708,92.87Z" transform="translate(-513.463 54.128)" fill="#006b98" opacity="0.32" style="mix-blend-mode: multiply;isolation: isolate"/>
          <path id="Path_5672" data-name="Path 5672" d="M799.656,171.886c-1.428-6.671-40.864-30-49.13-38.929l-32.35-2.223c-3.952,4.423-7.9,11.338-7.839,18.722.166,18.625,14.2,23.117,31.976,23.649,20.494.614,31.019,3.253,30.991,8.124S760.672,277.6,760.672,277.6l23.9,1.231S800.636,176.466,799.656,171.886Z" transform="translate(-524.802 53.525)" fill="#514553"/>
          <g id="Group_5029" data-name="Group 5029" transform="translate(256.012)">
            <g id="Group_5027" data-name="Group 5027" transform="translate(189.897 43.86)">
              <path id="Path_5673" data-name="Path 5673" d="M842.568,94.862s5.492-9.205,7.472-14.175,9.94-22.193,12.482-20.388-4.586,16.255-4.586,16.255,6.289-18.084,9.688-17.082-5.813,17.848-5.813,17.848,7.579-15.877,9.562-14.347.422,5.068-6.1,16.818c0,0,5.563-10.086,7.664-7.721s-4.676,11.62-7.14,13.805S851.713,97.3,848.93,101.2C848.93,101.2,842.694,99.023,842.568,94.862Z" transform="translate(-842.568 -59.432)" fill="#f88667"/>
              <path id="Path_5674" data-name="Path 5674" d="M849.992,73.037s8.341-4.74,10.669-2.906-.024,3.751-8.668,6.543c0,0-3.054,3.877-5,4.18C846.991,80.854,844.587,75.538,849.992,73.037Z" transform="translate(-838.798 -49.472)" fill="#ffb089"/>
            </g>
            <path id="Path_5675" data-name="Path 5675" d="M774.155,88.44s-3.233-6.421-3.233-8.294.943-3.895,1.01-6.455,3.5-8.485,2.761-10.168-2.828-1.28-4.848,2.763-1.347,6.531-2.964,5.387-5.59-6.13-6.868-8.217-5.32-6.195-6.4-5.521-1.382,1.751,5.777,11.846c0,0-8.106-12.153-10.493-9.962-1.666,1.532,6.25,10.428,7.4,11.842,0,0-7.331-9.2-9.517-7.026-2.052,2.038,8.032,9.7,8.032,9.7s-7.526-5.958-8.536-4.208,3.367,5.622,7.677,8.048,5.417,3.064,6.514,4.68a84.575,84.575,0,0,1,3.789,8.081S771.125,92.617,774.155,88.44Z" transform="translate(-746.128 -17.094)" fill="#f88667"/>
            <path id="Path_5676" data-name="Path 5676" d="M820.614,52.265,805.288,54.6s-.876,28.621-13,30.909c0,0-4.311,46.872,11.718,42.965S828.656,83.9,828.656,83.9,814.523,79.988,820.614,52.265Z" transform="translate(-701.905 -22.517)" fill="#e45940"/>
            <path id="Path_5677" data-name="Path 5677" d="M822,43.406s-16.536-6.809-23.1-2.676-6.028,18.393-7.006,24.927c-1.532,10.214,2.871,20.185,5.547,21.158s23.346-4.621,26.628-19.577S825.888,45.96,822,43.406Z" transform="translate(-702.089 -34.985)" fill="#f88667"/>
            <path id="Path_5678" data-name="Path 5678" d="M813.334,199.909s2.233,13.758.573,16.95c-1.751,3.367-36.58,1.745-38.663-.524s1.388-6.216,3.211-7.13S799.2,200,799.2,200Z" transform="translate(-718.538 120.561)" fill="#292c3d"/>
            <path id="Path_5679" data-name="Path 5679" d="M823.31,199.909H811.155s-.807,10.216,0,12.506,12.289,16.469,18.216,16.469c3.231,0,7.221.016,7.845-2.861.522-2.4-1.845-7.453-3.8-10.164C829.1,209.894,823.31,199.909,823.31,199.909Z" transform="translate(-683.461 120.561)" fill="#292c3d"/>
            <path id="Path_5680" data-name="Path 5680" d="M822.622,71.568s-5.929,3.282-9.759,3.556-6.189-4.269-11.582-3.1-6.078,1.361-6.078,1.361-2.857,19.34,4.438,18.793,19.7-8.207,24.074-13.405a9.58,9.58,0,0,0,7.479-4.468c2.918-4.47,6.841-18.332,4.287-26.72s-13.863-11.673-18.6-7.752c0,0-3.617-3.009-10.487-2.644s-8.294,4.013-11.212,6.2-5.777,2.19-6.75.305c0,0-2.066,3.466,1.642,9.422s7.99,5.047,13.766,3.71,12.951-7.053,12.951-7.053-.305,11.917,2.674,16.294c0,0,1.095.486,1.52,0s.122-6.687,3.466-5.289S825.6,69.227,822.622,71.568Z" transform="translate(-705.693 -37.157)" fill="#292c3d"/>
            <path id="Path_5681" data-name="Path 5681" d="M794.025,57.551a18.331,18.331,0,0,0,9.119.425s-2.69,3.54-5.653,3.04A3.873,3.873,0,0,1,794.025,57.551Z" transform="translate(-699.713 -17.395)" fill="#fff"/>
            <path id="Path_5682" data-name="Path 5682" d="M822.678,66.141,808.5,73.813l-11.025-6.618a100.586,100.586,0,0,0-4,35.985c1.615,19.126,4.714,32.864,17.643,15.085S828.849,72.336,822.678,66.141Z" transform="translate(-700.529 -9.07)" fill="#fff"/>
            <path id="Path_5683" data-name="Path 5683" d="M822.678,66.141,808.5,73.813l-11.025-6.618a100.586,100.586,0,0,0-4,35.985c1.615,19.126,4.714,32.864,17.643,15.085S828.849,72.336,822.678,66.141Z" transform="translate(-700.529 -9.07)" fill="#b9d2db"/>
            <path id="Path_5684" data-name="Path 5684" d="M804.11,82.573S796.5,123.8,797.142,124.6c.417-.528,5.053,11.18,7.73,0,2.085-8.7,2.34-41.073,2.672-41.467,0,0,3.977-4.281,6.3-6.39q2.286-2.073,4.423-4.267c.37-.673.73-1.353,1.044-2.079-.207.492-.414.983-.622,1.475a34.7,34.7,0,0,1,3-4.807,5.81,5.81,0,0,0-.73-.92l-14.181,7.672-11.025-6.618s-.327.99-.794,2.725c1.158,1.615,2.205,3.249,3.111,4.812C799.227,76.737,804.11,82.573,804.11,82.573Z" transform="translate(-698.809 -9.07)" fill="#292c3d"/>
            <path id="Path_5685" data-name="Path 5685" d="M785.751,105.518l43.511-.821s6.618,10.848,8.1,42.156c1.014,21.435,1.89,27.37,4.023,55.705,1.445,19.236,8.27,92.956,8.27,92.956H826.529s-9.788-84.125-10.288-88.709c-.178-1.621-5.9-46.1-5.9-46.1s.937,40.289.937,44.976,1.01,87.457,1.01,87.457H787.929s-2.737-70.377-2.969-86.486C784.585,180.573,782.357,113.94,785.751,105.518Z" transform="translate(-709.529 28.294)" fill="#292c3d"/>
            <path id="Path_5686" data-name="Path 5686" d="M809.128,66.676s-15.312,2.963-21.238,4.929c0,0,1.886,35.367-4.041,44.255l-2.694,77.04s33.537-.4,34.614-42.156,1.01-43.639,1.01-43.639Z" transform="translate(-712.185 -8.552)" fill="#514553"/>
            <g id="Group_5028" data-name="Group 5028" transform="translate(96.643 102.06)">
              <path id="Path_5687" data-name="Path 5687" d="M799.037,90.3a1.288,1.288,0,1,1-1.264-1.311A1.287,1.287,0,0,1,799.037,90.3Z" transform="translate(-793.996 -88.989)" fill="#292c3d"/>
              <path id="Path_5688" data-name="Path 5688" d="M798.62,96.724a1.288,1.288,0,1,1-1.264-1.311A1.288,1.288,0,0,1,798.62,96.724Z" transform="translate(-794.4 -82.764)" fill="#292c3d"/>
              <path id="Path_5689" data-name="Path 5689" d="M798.2,103.147a1.288,1.288,0,1,1-1.262-1.311A1.287,1.287,0,0,1,798.2,103.147Z" transform="translate(-794.805 -76.54)" fill="#292c3d"/>
              <path id="Path_5690" data-name="Path 5690" d="M797.785,109.57a1.288,1.288,0,1,1-1.264-1.311A1.289,1.289,0,0,1,797.785,109.57Z" transform="translate(-795.209 -70.316)" fill="#292c3d"/>
            </g>
            <path id="Path_5691" data-name="Path 5691" d="M839.536,75.917l-20.9-9.776-17.554,41.483-3.731,48.459s.431,42.6,36.8,37.336l-2.958-78.155S830.917,86.635,839.536,75.917Z" transform="translate(-696.489 -9.07)" fill="#514553"/>
            <path id="Path_5692" data-name="Path 5692" d="M881.409,88.4,868.75,79.242s-23.436,37-24.783,35.873S831.44,75.074,822.955,71.106c0,0-4.287,3.066-6.734,12.043-1.73,6.35-1.983,16.588-1.611,26.681,0,0,22.083,32.714,29.9,31.637S881.409,88.4,881.409,88.4Z" transform="translate(-679.909 -4.259)" fill="#514553"/>
            <path id="Path_5693" data-name="Path 5693" d="M767.743,72.973l-14.335,5.712s19.618,70.9,30.932,64.674,26.343-28.311,26.343-28.311A52.561,52.561,0,0,0,816.5,97.408c1.449-9.471.555-22.453-1.721-28.229,0,0-9.966,6.067-18.317,22.737s-10.9,21.441-11.647,20.4S767.743,72.973,767.743,72.973Z" transform="translate(-739.074 -6.126)" fill="#514553"/>
            <path id="Path_5694" data-name="Path 5694" d="M806.985,74.463l-9.86-7.519-2.383,2.212,3.819,13.5,8.424-6.312,7.587,7.1L821.9,68.205l-3.679-3.842Z" transform="translate(-699.017 -10.793)" fill="#fff"/>
          </g>
          <g id="Group_5030" data-name="Group 5030" transform="translate(252.057 120.081)">
            <rect id="Rectangle_179" data-name="Rectangle 179" width="73.796" height="4.493" transform="translate(6.871 58.743)" fill="#3f6a85"/>
            <rect id="Rectangle_180" data-name="Rectangle 180" width="84.504" height="60.99" rx="2.236" transform="translate(1.518 0)" fill="#b9d2db"/>
            <path id="Path_5695" data-name="Path 5695" d="M748.021,154.726V102.544a4.4,4.4,0,0,1,4.4-4.4h-3.9a4.4,4.4,0,0,0-4.4,4.4v52.182a4.406,4.406,0,0,0,4.4,4.4h3.9A4.4,4.4,0,0,1,748.021,154.726Z" transform="translate(-744.12 -98.141)" fill="#7695a8"/>
            <path id="Path_5696" data-name="Path 5696" d="M772.673,115.714a4.238,4.238,0,1,1-4.239-4.239A4.24,4.24,0,0,1,772.673,115.714Z" transform="translate(-724.665 -85.219)" fill="#fff"/>
          </g>
          <g id="Group_5031" data-name="Group 5031" transform="translate(364.309 122.742)">
            <rect id="Rectangle_181" data-name="Rectangle 181" width="55.59" height="7.948" transform="translate(15.032 52.63)" fill="#292c3d"/>
            <path id="Path_5697" data-name="Path 5697" d="M801.127,100.525l18.009,55.855,2.814-1.033L803.941,99.492Z" transform="translate(-801.127 -99.492)" fill="#292c3d"/>
          </g>
          <path id="Path_5698" data-name="Path 5698" d="M864.994,200.025s-14.8,7.291-22.731,10.574c-6.593,2.727-5.226,8.737,2.266,10.96s13.669.76,15.374-1.617,5.9-1.491,7.489-.729,14.09-2.119,14.8-5.015-2.4-15.658-2.4-15.658Z" transform="translate(-401.06 119.235)" fill="#292c3d"/>
          <path id="Path_5699" data-name="Path 5699" d="M938.414,129.5l-25.151.331s-61.534,22.956-69.571,28.983S856.9,269.91,856.9,269.91l20.88-2.186s-4.925-94.01-.906-98.028,69.158-9.965,73.261-11.2C954.155,157.294,948.425,142.859,938.414,129.5Z" transform="translate(-397.33 52.331)" fill="#514553"/>
          <path id="Path_5700" data-name="Path 5700" d="M938.414,129.5l-25.151.331s-61.534,22.956-69.571,28.983S856.9,269.91,856.9,269.91l20.88-2.186s-4.925-94.01-.906-98.028,69.158-9.965,73.261-11.2C954.155,157.294,948.425,142.859,938.414,129.5Z" transform="translate(-397.33 52.331)" fill="#3d3848"/>
          <g id="Group_5033" data-name="Group 5033" transform="translate(464.204 122.226)">
            <path id="Path_5701" data-name="Path 5701" d="M934.6,102.769,909.056,204.9l-10.573-2.645L920.452,99.23Z" transform="translate(-806.677 -99.23)" fill="#b9d2db"/>
            <g id="Group_5032" data-name="Group 5032" transform="translate(11.352 108.639)">
              <rect id="Rectangle_182" data-name="Rectangle 182" width="4.232" height="111.466" fill="#b9d2db"/>
              <rect id="Rectangle_183" data-name="Rectangle 183" width="4.232" height="111.466" transform="translate(78.338)" fill="#b9d2db"/>
            </g>
            <rect id="Rectangle_184" data-name="Rectangle 184" width="105.274" height="14.585" transform="translate(0 98.374)" fill="#292c3d"/>
          </g>
          <path id="Path_5702" data-name="Path 5702" d="M894.607,75.106l-14.436,3.08s4.152,17.751,0,27.53c0,0,7.87,3.093,21.132-6.955C901.3,98.761,893.132,91.851,894.607,75.106Z" transform="translate(-360.219 -0.382)" fill="#f88667"/>
          <path id="Path_5703" data-name="Path 5703" d="M904.056,66.767S888,60.716,883.693,62.927s-9.542,5.47-8.727,8.729,1.426,12.886.378,15.91-2.851,5.12-2.416,6.167,2.969.222,3.666,1.508,4.452,9.751,6.634,10.974,14.632-3.17,20.393-16.7S907.637,69.067,904.056,66.767Z" transform="translate(-367.302 -12.656)" fill="#f88667"/>
          <path id="Path_5704" data-name="Path 5704" d="M858.112,200.116s-19.326,6.742-27.289,9.946c-6.618,2.664-5.31,8.688,2.16,10.982s13.661.894,15.39-1.465,5.913-1.433,7.492-.656,14.11-1.981,14.845-4.871-1.046-11.352-1.046-11.352Z" transform="translate(-412.191 120.762)" fill="#292c3d"/>
          <path id="Path_5705" data-name="Path 5705" d="M896.681,63.985s5.5-6.11,11.695-2.532,3.771,9.276,5.062,11.783c3,5.807,2.532,10.706-.488,16.03-3.361,5.931-1.339,9.774-6.91,10.385s-7.264-1.016-7.264-1.016a21.487,21.487,0,0,0,2.182-8.729s4.771-2.646,4.131-6.778-5.7-4.657-7.041-.408,1.047,7.156-2.093,9.192c0,0-1.863.524-1.863-4.188a45.218,45.218,0,0,1,.872-8.682s-11.275,5.984-19.966,0-2.684-15.4,3.627-17.548A20.747,20.747,0,0,1,896.681,63.985Z" transform="translate(-369.44 -14.702)" fill="#292c3d"/>
          <path id="Path_5706" data-name="Path 5706" d="M948.289,127.61l-28.089,5.6s-63.822,23.052-71.86,29.079-9.475,109.457-9.475,109.457l20.951,2.024s8.969-98.318,13.874-101.189c4.229-2.477,72.891-2.477,77.176-2.477C957.053,170.1,962.379,141.831,948.289,127.61Z" transform="translate(-400.247 50.498)" fill="#514553"/>
          <path id="Path_5707" data-name="Path 5707" d="M850.891,126.725s-4.235.516-5.135.506-12.519-7.051-13.789-6.122-13.24,9.481-12.9,11.186,3.675.721,10.041-4.793c0,0-8.465,6.136-6.862,7.666s9-5.368,9-5.368-7.622,5.827-5.836,7.171,8.518-5.632,8.518-5.632-5.275,5.23-4.565,6.12,4.025-.581,7.662-4.066c0,0,.664-.37,2.572.725s13.687-.843,13.687-.843Z" transform="translate(-419.44 44.117)" fill="#f88667"/>
          <path id="Path_5708" data-name="Path 5708" d="M833.7,153.825l3.584,13.463s58.127-13.126,64-17.483S942.361,107.335,937.2,96.72s-11.861-8-16.07-1.975-24.3,31.749-27.168,34.764S833.7,153.825,833.7,153.825Z" transform="translate(-405.255 13.556)" fill="#fece8f"/>
          <path id="Path_5709" data-name="Path 5709" d="M855.012,129.912s-4.448.516-5.393.506-13.152-7.051-14.485-6.12-13.908,9.479-13.549,11.184,3.859.723,10.544-4.793c0,0-8.89,6.136-7.207,7.668s9.449-5.368,9.449-5.368-8.006,5.825-6.132,7.169,8.95-5.632,8.95-5.632-5.541,5.23-4.8,6.12,4.229-.581,8.049-4.066c0,0,.7-.37,2.7.725s14.374-.843,14.374-.843Z" transform="translate(-417.001 47.206)" fill="#f88667"/>
          <path id="Path_5710" data-name="Path 5710" d="M906.732,86.6S893.716,93.2,886.359,92.78c0,0-11.913,25.037-12.716,31.736s1.361,50.4,1.361,50.4,28.825,6.262,45.816-2.312c0,0-4.576-28.526-2.7-42.727S918.507,97.13,906.732,86.6Z" transform="translate(-366.718 10.759)" fill="#f29423"/>
          <path id="Path_5711" data-name="Path 5711" d="M901.163,124.777c2.879-6.64,14.148-17.338,8.477-24.793-4.563-6-7.831-6.407-12.844-.7-4.7,5.354-8.989,11.121-14.325,15.851a90.921,90.921,0,0,1-9.006,6.589c0,13.764,1.54,44.816,1.54,44.816a116.5,116.5,0,0,0,20.541,2.194C889.556,155.664,895.12,138.712,901.163,124.777Z" transform="translate(-366.718 19.126)" fill="#006b98" opacity="0.32" style="mix-blend-mode: multiply;isolation: isolate"/>
          <path id="Path_5712" data-name="Path 5712" d="M836.952,157.011l3.767,13.463s61.053-13.126,67.224-17.481,43.148-42.471,37.722-53.086-12.458-8-16.879-1.973-25.521,31.749-28.534,34.764S836.952,157.011,836.952,157.011Z" transform="translate(-402.101 16.645)" fill="#fece8f"/>
          <g id="Group_5034" data-name="Group 5034" transform="translate(144.755 72.193)">
            <path id="Path_5713" data-name="Path 5713" d="M689.626,105.441a120.629,120.629,0,0,0,5.366-12.486c1.341-4.334,6.913-19.429,9.184-18.074s-2.786,14.049-2.786,14.049,4.1-15.711,7.042-15.091-3.714,15.479-3.714,15.479,5.34-13.931,7.12-12.769.7,4.255-4.025,14.626c0,0,4.025-8.9,5.958-7.043S710.6,94.27,708.663,96.282s-11.143,10.6-13.232,14.085C695.431,110.367,690.012,108.947,689.626,105.441Z" transform="translate(-689.626 -73.821)" fill="#f88667"/>
            <path id="Path_5714" data-name="Path 5714" d="M695.337,86.1s6.733-4.568,8.822-3.174.232,3.174-6.888,6.114c0,0-2.322,3.483-3.946,3.869C693.325,92.9,690.935,88.572,695.337,86.1Z" transform="translate(-686.669 -65.258)" fill="#f88667"/>
          </g>
          <path id="Path_5715" data-name="Path 5715" d="M726.423,87.768s-23.893,40.181-25.131,39.9-35.91-10.759-47.809-19.638c-3.371-2.516-3.365,24.968,0,26.651s53.864,10.661,56.109,9.257S737.47,94.319,737.47,94.319Z" transform="translate(-582.346 11.888)" fill="#fece8f"/>
          <path id="Path_5716" data-name="Path 5716" d="M713.245,123.469c-17.235,11.072-57.6-20.872-62.248-21.945-.691,7.524.429,18.718,2.645,19.827,3.367,1.684,53.864,10.661,56.109,9.257.569-.354,2.652-3.743,5.431-8.571A18.878,18.878,0,0,1,713.245,123.469Z" transform="translate(-582.504 25.219)" fill="#f29423" opacity="0.57"/>
          <path id="Path_5717" data-name="Path 5717" d="M662.185,98.4c-1.522-.319-8.823-15.717-11.948-18.714-1.5,10.519-7.855,35.461-7.855,35.461,7.715,8.276,23.1,3.206,23.1,3.206C662.959,112.881,661.746,101.97,662.185,98.4Z" transform="translate(-590.655 4.054)" fill="#f88667"/>
          <path id="Path_5718" data-name="Path 5718" d="M655.678,68.4s14.973,3.369,17.842,7.735,2.859,15.729,4.444,18.73c.961,1.819,1.819,3.284,2.3,4.352.422.935-.64,1.485-1.943,1.944a2.273,2.273,0,0,0-1.4,1.449c-.886,2.749-3.359,9.761-5.834,10.735-3.087,1.217-18.34.748-22.924-12.537S646.086,65.548,655.678,68.4Z" transform="translate(-587.207 -7.128)" fill="#f88667"/>
          <path id="Path_5719" data-name="Path 5719" d="M686.919,200.79l-10.054-1.66s-.512,9.556-1.349,11.744c0,0,11.279,5.4,22.84,1.126,0,0-7.37-3.174-9.3-5.429A11.109,11.109,0,0,1,686.919,200.79Z" transform="translate(-558.545 119.806)" fill="#f88667"/>
          <path id="Path_5720" data-name="Path 5720" d="M676.76,202.812s7.644,5.321,19.505,4.46c0,0,14.431,7.723,15.363,9.656,1.3,2.708-5.021,2.877-14.886,2.554-8.414-.276-7.8-.908-9.485-2.56s-3.794-3.487-3.794-3.487-.774,1.04-1.643,5.848l-3.761-.543s.437-4.619-1.376-7.081C675.407,209.926,673.944,205.9,676.76,202.812Z" transform="translate(-558.904 123.375)" fill="#292c3d"/>
          <path id="Path_5721" data-name="Path 5721" d="M667.287,199.739l-7.595-2.073s-4.456,7.431-5.758,9.383c0,0,9.8,7.758,22.022,6.155,0,0-6.484-4.73-7.868-7.354A11.107,11.107,0,0,1,667.287,199.739Z" transform="translate(-579.459 118.388)" fill="#f88667"/>
          <path id="Path_5722" data-name="Path 5722" d="M655.36,201.54s7.118,6,19.01,6.24c0,0,13.657,9.022,14.406,11.033,1.048,2.816-5.265,2.4-15.057,1.17-8.353-1.052-7.679-1.623-9.207-3.424s-3.458-3.822-3.458-3.822-.864.965-2.176,5.671l-3.694-.888s.863-4.56-.717-7.177C653.355,208.5,652.27,204.352,655.36,201.54Z" transform="translate(-580.039 122.142)" fill="#292c3d"/>
          <path id="Path_5723" data-name="Path 5723" d="M649.432,128.245l19.827,14.036s64.32,12.393,72.48,18.515-51.925,114.64-51.925,114.64l-18.706-6.212S716,173.138,711.917,169.058s-70.221-10.119-74.388-11.367C633.449,156.466,639.268,141.808,649.432,128.245Z" transform="translate(-596.631 51.113)" fill="#f25d59"/>
          <path id="Path_5724" data-name="Path 5724" d="M649.432,128.245l19.827,14.036s64.32,12.393,72.48,18.515-51.925,114.64-51.925,114.64l-18.706-6.212S716,173.138,711.917,169.058s-70.221-10.119-74.388-11.367C633.449,156.466,639.268,141.808,649.432,128.245Z" transform="translate(-596.631 51.113)" fill="#da3934"/>
          <path id="Path_5725" data-name="Path 5725" d="M644.519,131.482l25.917,2.184s66.433,16.749,74.594,22.871-11.9,114.661-11.9,114.661l-20.3-5.133s11.444-96.162,6.465-99.078c-4.295-2.514-74.012-2.514-78.362-2.514C634.648,164.472,630.211,145.919,644.519,131.482Z" transform="translate(-597.809 54.25)" fill="#f25d59"/>
          <path id="Path_5726" data-name="Path 5726" d="M650.94,95.051a188.562,188.562,0,0,0,20.555,7.8s12.088,23.867,12.905,30.527,6.073,43.032,6.073,43.032-37.3,10.737-54.551,2.213c0,0,5.224-25.8,3.32-39.919S638.984,105.515,650.94,95.051Z" transform="translate(-596.915 18.946)" fill="#f29423"/>
          <path id="Path_5727" data-name="Path 5727" d="M645.9,126.57c.039,11.944,7.723,17.793,15.626,25.519a51.6,51.6,0,0,1,11.832,17.088c4.235-1.244,7.445-1.851,7.445-1.851s-2.816-19.492-4.647-32.549c-7.928-3.544-12.135-11.125-14.965-19.189-1.638-4.671-2.531-7.687-5.49-11.163-8.774.238-9.308,10.505-9.806,20.1C645.9,125.216,645.9,125.9,645.9,126.57Z" transform="translate(-587.247 28.031)" fill="#f29423"/>
          <g id="Group_5036" data-name="Group 5036" transform="translate(0 118.837)">
            <path id="Path_5728" data-name="Path 5728" d="M616.112,101.1,642.05,204.8l10.736-2.686-22.307-104.6Z" transform="translate(-616.112 -97.509)" fill="#b9d2db"/>
            <g id="Group_5035" data-name="Group 5035" transform="translate(34.525 110.308)">
              <rect id="Rectangle_185" data-name="Rectangle 185" width="4.297" height="113.178" transform="translate(79.541)" fill="#b9d2db"/>
              <rect id="Rectangle_186" data-name="Rectangle 186" width="4.296" height="113.178" fill="#b9d2db"/>
            </g>
            <rect id="Rectangle_187" data-name="Rectangle 187" width="106.891" height="14.809" transform="translate(22.999 99.885)" fill="#292c3d"/>
          </g>
          <path id="Path_5729" data-name="Path 5729" d="M693.8,83.858c4.838-1.9,2.668-9.4-.646-11.708-5.828-4.064-13.4-7.081-20.581-6.935-8.764.177-16.778,6.961-21.867,13.532-3.692,4.767-3.44,9.816-6.1,14.943-2.426,4.669-7.666,7.006-10.806,11.208-2.953,3.95-2.973,9.1-1.818,13.746.9,3.631,1.914,6.929,1.318,10.661-.742,4.639-4.46,8.053-5.722,12.529-1.142,4.046-.634,8.6-.217,12.726A17.307,17.307,0,0,0,635,167.52c9.2,6.106,21.648-1.294,23.068-11.562.642-4.653-.719-8.727-1.17-13.187-.575-5.669,1.384-8.912,6.15-11.994,4.023-2.6,5.929-4.295,5.618-9.328-.211-3.422-.6-6.908.045-10.308.737-3.887,2.375-4.635-.677-7.484-2.135-1.995-3.932-4.145-2.235-7.158,1.383-2.45,3.6-3.17,5.513-.868.5.6,3.023,5.669,3.669,2.818.181-.8-.886-2.341-.984-3.229A3.546,3.546,0,0,1,675.006,92c1.51-1.6,3.737-2.457,5.295-4.07,1.949-2.016,2.2-4.68,5.023-5.791a7.3,7.3,0,0,1,4.505-.193C690.493,82.129,693.341,84.037,693.8,83.858Z" transform="translate(-605.68 -9.973)" fill="#292c3d"/>
          <g id="Group_5037" data-name="Group 5037" transform="translate(160.545 122.742)">
            <rect id="Rectangle_188" data-name="Rectangle 188" width="55.59" height="7.948" transform="translate(0 52.63)" fill="#292c3d"/>
            <path id="Path_5730" data-name="Path 5730" d="M743.758,100.525l-18.01,55.855-2.814-1.033,18.009-55.855Z" transform="translate(-673.137 -99.492)" fill="#292c3d"/>
          </g>
          <g id="Group_5038" data-name="Group 5038" transform="translate(135.126 183.318)">
            <rect id="Rectangle_189" data-name="Rectangle 189" width="3.699" height="163.423" transform="translate(0 0.002)" fill="#7695a8"/>
            <rect id="Rectangle_190" data-name="Rectangle 190" width="3.699" height="163.423" transform="translate(367.351 0.002)" fill="#7695a8"/>
            <rect id="Rectangle_191" data-name="Rectangle 191" width="371.051" height="4.333" fill="#7695a8"/>
          </g>
          <path id="Path_5731" data-name="Path 5731" d="M694.942,129.669s4.818-.323,5.817-.518,12.565-10.046,14.162-9.322,16.6,7.333,16.55,9.211-3.95,1.52-12.118-3.021c0,0,10.627,4.767,9.141,6.72s-11.068-3.844-11.068-3.844,9.627,4.612,7.9,6.4-10.588-4.222-10.588-4.222,6.9,4.462,6.281,5.551-4.6.211-9.329-2.737c0,0-.811-.256-2.721,1.3s-15.406,1.916-15.406,1.916Z" transform="translate(-541.055 42.922)" fill="#f88667"/>
          <path id="Path_5732" data-name="Path 5732" d="M744.927,146.559l-.132,12.832s-44.976,2.737-57.6-1.471-39.238-38.157-41.512-43.845c-2.735-6.839,7.679-23.46,17.989-8.311s28.993,35.534,30.044,36.166S744.927,146.559,744.927,146.559Z" transform="translate(-587.885 23.34)" fill="#fece8f"/>
        </g>
      </g>
    </g>
  </g>
</svg>
